<?xml version="1.0" encoding="UTF-8"?><svg id="Layer_1" xmlns="http://www.w3.org/2000/svg" viewBox="0 0 277.08 250.79"><defs><style>.cls-1{fill:#996c68;}.cls-2{fill:#f5c1ae;}.cls-3{fill:#f7f0c0;}</style></defs><path class="cls-1" d="M17.85,121.52C17.85,57.82,67.17,5.64,129.7,1.07c-2.95-.22-5.92-.33-8.92-.33C54.07,.74,0,54.81,0,121.52s54.07,120.78,120.78,120.78c3,0,5.98-.11,8.92-.33-62.54-4.57-111.86-56.75-111.86-120.45Z"/><path class="cls-2" d="M33.93,128.57C33.93,61.87,88.01,7.79,154.71,7.79c15.37,0,30.06,2.88,43.58,8.11C180.62,5.78,160.16,0,138.35,0,71.65,0,17.57,54.07,17.57,120.78c0,51.34,32.03,95.19,77.2,112.67-36.35-20.82-60.84-59.99-60.84-104.88Z"/><path class="cls-3" d="M132.24,6.63v.17C75.69,10.18,30.75,62.89,30.75,127.41s44.94,117.23,101.49,120.6v.17h131.48V6.63H132.24Z"/><path class="cls-1" d="M119.5,10.4V244.43c0,3.51,2.85,6.36,6.36,6.36h144.86c3.51,0,6.36-2.85,6.36-6.36V10.4c0-3.51-2.85-6.36-6.36-6.36H125.86c-3.51,0-6.36,2.85-6.36,6.36Zm144.12,215.32c-2.13,2.34-29.08-26.08-63.59-24.68-9.9,.4-18.79,3.2-26.44,6.94-5.41,2.65-11.16-2.87-8.64-8.34,5.27-11.41,10.02-24.85,12.96-40.16,1.85-9.67,2.77-19.05,2.97-28.05,.02-1.09-.25-2.16-.76-3.12-9.15-17.12-15.46-34.41-19.78-51.04-2.07-7.98,9.8-11.34,12.24-3.47,4.81,15.51,8.41,33.91,8.35,54.31,0,1.09,.26,2.16,.78,3.11,5.05,9.12,10.92,18.17,17.75,27.04,26.66,34.65,66.57,64.8,64.16,67.45Z"/></svg>