<?xml version="1.0" encoding="UTF-8"?><svg id="Layer_2" xmlns="http://www.w3.org/2000/svg" xmlns:xlink="http://www.w3.org/1999/xlink" viewBox="0 0 267.78 79.22"><defs><style>.cls-1{fill:url(#linear-gradient-2);}.cls-2{fill:#490d3d;}.cls-3{fill:#7f0243;}.cls-4{fill:url(#linear-gradient-3);}.cls-5{fill:url(#linear-gradient);}</style><linearGradient id="linear-gradient" x1="254.46" y1="39.61" x2="0" y2="39.61" gradientTransform="matrix(1, 0, 0, 1, 0, 0)" gradientUnits="userSpaceOnUse"><stop offset="0" stop-color="#a10d46"/><stop offset=".54" stop-color="#490d3d"/><stop offset="1" stop-color="#1f061a"/></linearGradient><linearGradient id="linear-gradient-2" x1="203.41" y1="50.06" x2="271.02" y2="50.06" gradientTransform="matrix(1, 0, 0, 1, 0, 0)" gradientUnits="userSpaceOnUse"><stop offset="0" stop-color="#a10d46"/><stop offset=".5" stop-color="#490d3d"/></linearGradient><linearGradient id="linear-gradient-3" y1="53.35" y2="53.35" xlink:href="#linear-gradient-2"/></defs><g id="Layer_1-2"><path class="cls-5" d="M249.68,3.21c-3.39-.84-4.37,0-7.23-1.04-2.54-.92-2.75-1.94-4.86-2.14-1.85-.18-3.32,.48-4.43,1-5.21,2.43-6.14,6.96-9.84,7.18-.53,.03-1.42,0-2.29-.13-1.73-.24-3.07-.76-3.83-1.1-.29-.13-.49-.23-.54-.26-.71-.35-5.41-2.55-11.3-3.74-1.43-.29-7.06-1.35-14.5-.68-7.54,.68-13.67,2.85-18.01,4.86,5.56,0,16.44,.89,24.87,8.43,2.36,2.11,3.68,3.3,4.29,5.43,1.85,6.55-5.83,12.43-16.67,26.15v-.03c-1.72,2.04-3.08,3.62-4.09,4.73-1.01,1.11-1.69,1.74-2.04,1.88-.3-.23-.57-.47-.81-.7-.23-.23-.43-.47-.6-.7-.66-.91-1.18-1.66-1.56-2.23-.39-.57-.64-.94-.76-1.11-.23-.47-.41-1.04-.53-1.71s-.18-1.46-.18-2.37c.16-.61,.32-1.16,.46-1.65,.45-.47,.86-.9,1.25-1.28s.76-.74,1.11-1.07c.77-.89,1.56-1.76,2.36-2.62,.8-.86,1.56-1.72,2.29-2.58,1.17-1.38,2.04-2.52,2.62-3.41,.57-.89,.86-1.55,.86-1.97,0-1.15-.17-2.02-.51-2.6-.34-.59-.84-.88-1.49-.88-.98,0-1.9,.26-2.76,.77-.86,.52-1.65,1.31-2.37,2.39-1.41,1.62-2.75,3.14-4.04,4.57-.91,1.01-1.63,1.92-2.14,2.72s-.84,1.53-.98,2.16c-.35,.66-.66,1.23-.93,1.71-.27,.48-.5,.92-.69,1.32-.49,.66-.94,1.2-1.34,1.63-.4,.43-.75,.78-1.05,1.04-.35,.45-.64,.84-.88,1.18-.23,.34-.43,.6-.6,.79v.02c-.19,.22-.41,.39-.65,.5-.25,.12-.52,.18-.83,.18-.4,0-.76-.18-1.07-.53s-.6-.89-.86-1.62c-.42-1.24-.87-2.59-1.34-4.04-.4-.75-.88-1.3-1.44-1.65s-1.21-.53-1.93-.53c-.38,0-.81,.09-1.32,.28-.5,.19-1.07,.45-1.71,.77-.56,.35-1.05,.69-1.48,1.02-.42,.33-.79,.65-1.09,.95-.21,.23-.39,.46-.54,.67s-.28,.36-.37,.46c-.42,.33-.8,.69-1.14,1.07s-.62,.78-.83,1.18c-.54,.47-1,.9-1.39,1.28s-.67,.76-.86,1.11c-.14,.16-.26,.3-.37,.42-.11,.12-.22,.21-.33,.28-.16-.21-.25-.39-.25-.53,0-.12,.02-.29,.07-.53,.05-.23,.14-.5,.28-.81,.19-.42,.39-.87,.6-1.34,.84-2.51,1.46-4.52,1.86-6.05,.4-1.52,.6-2.55,.6-3.09,0-1.01-.2-1.78-.6-2.3s-1.02-.79-1.86-.79-1.64,.19-2.39,.56c-.75,.38-1.45,.95-2.11,1.72-.77,.87-1.44,1.61-2,2.23-.56,.62-1.03,1.13-1.41,1.53-.87,.98-1.61,1.82-2.21,2.51-.61,.69-1.12,1.27-1.55,1.74-.47,.47-.89,.88-1.27,1.23-.38,.35-.68,.62-.91,.81-.21,.28-.39,.52-.54,.72-.15,.2-.28,.38-.37,.54v.02c-.36,.3-.73,.6-1.11,.91-.39,.32-.76,.63-1.11,.93-.47,.38-.93,.64-1.37,.79-.45,.15-.88,.23-1.3,.23-.35,0-.65-.05-.88-.16-.23-.11-.41-.28-.53-.51-.12-.14-.29-.69-.53-1.63-.23-.95-.43-1.66-.6-2.13-.09-.75-.21-1.49-.35-2.23s-.29-1.47-.46-2.2c-.19-.82-.56-1.44-1.12-1.85-.56-.41-1.25-.62-2.07-.62-.3,0-.61,.08-.91,.25-.3,.16-.57,.43-.81,.81-.61,.87-1.71,2-3.3,3.39-1.59,1.39-2.71,2.53-3.34,3.39l-.11,.35-.21,.25s.02,.03,.03,.03c-.52,.45-.99,.85-1.4,1.18-.42,.34-.79,.6-1.09,.79-1.03,.35-1.84,.61-2.43,.77-.59,.16-.94,.25-1.05,.25-1.81,0-3.16-.58-4.06-1.74-.9-1.16-1.35-2.88-1.35-5.15,.77-1.17,1.52-2.4,2.25-3.69,.54-.8,1.02-1.49,1.44-2.07,.42-.59,.76-1.08,1.02-1.48,.21-.44,.4-.84,.56-1.2,.16-.35,.32-.64,.46-.88,.33-.52,.61-.94,.84-1.27,.23-.33,.42-.63,.56-.91,.28-.54,.5-1.01,.67-1.41,.16-.4,.28-.75,.35-1.05,.26-.42,.5-.8,.72-1.14,.22-.34,.4-.63,.54-.86,.35-.91,.66-1.76,.91-2.53,.26-.77,.47-1.45,.63-2.04,.3-.66,.55-1.22,.74-1.69,.19-.47,.33-.87,.42-1.2l-.04-.49c.09-.19,.15-.37,.18-.56,0-.61,.13-1.28,.39-2,.26-.73,.39-1.29,.39-1.69s.06-.99,.19-1.78c.13-.79,.19-1.37,.19-1.74,0-1.45-.25-2.44-.76-2.97-.5-.53-1.44-.79-2.79-.79-.68,0-1.45,.47-2.3,1.41-.86,.94-1.83,2.33-2.94,4.18-.82,1.41-1.56,2.78-2.21,4.11-.66,1.34-1.18,2.61-1.58,3.83-.33,.73-.62,1.38-.88,1.95-.26,.57-.5,1.05-.74,1.42-.7,2.18-1.33,4.2-1.88,6.06-.55,1.86-.98,3.58-1.28,5.15l.21,.67c-.16,.26-.35,1.02-.56,2.29s-.32,2.17-.32,2.71c.05,.19,.08,.43,.11,.74,0,.21,0,.38-.02,.49-.01,.12-.06,.21-.16,.28l-2.32,2.04c-.35,.4-.63,.77-.84,1.11-.21,.34-.42,.63-.63,.86v.02c-.35,.29-.66,.51-.91,.63-.26,.13-1.01,.8-2.25,2.02-.49,.47-.95,.84-1.37,1.11-.42,.27-.79,.4-1.09,.4-.14,0-.25-.04-.33-.11-.08-.07-.12-.16-.12-.28,0-.89,.36-2.21,1.09-3.96,.73-1.75,1.09-3.09,1.09-4.03,0-1.78-.23-3.29-.7-4.54-.47-1.24-1.17-2.21-2.11-2.92-.12-.09-.3-.22-.56-.39-.52-.52-1.05-1.01-1.6-1.48-.55-.47-1.23-.7-2.02-.7-.75,0-1.73,.4-2.94,1.2-1.21,.8-1.96,1.49-2.27,2.07l.35,1.69c-.49,1.12-1.28,2.34-2.37,3.64s-2.49,2.65-4.2,4.06c-.37,.54-.75,1.05-1.12,1.55l.02,.04c-.15,.14-.3,.27-.46,.38-.18,.12-.31,.2-.4,.25-.16,.19-.32,.38-.47,.56-.15,.19-.31,.39-.47,.6-.21,.19-.42,.34-.62,.46-.2,.12-.4,.18-.62,.18-.7,0-1.27-.3-1.71-.9-.43-.6-.64-1.27-.62-2.02,0-1.08,.02-2.2,.07-3.38-.05-.77-.2-1.35-.46-1.74-.26-.39-.63-.58-1.12-.58-.8,0-1.66,.31-2.6,.93-.94,.62-1.95,1.58-3.02,2.87-.21,.14-.4,.26-.56,.35-.16,.09-.33,.19-.49,.28-.21,.14-.57,.44-1.07,.9-.5,.46-1.15,1.05-1.95,1.78-.68,.66-1.3,1.18-1.86,1.58-.56,.4-1.1,.68-1.62,.84l-.25-.32c.68-.96,1.23-1.73,1.65-2.32,.42-.59,.71-.96,.88-1.12,1.31-1.15,2.36-2.13,3.15-2.95,.79-.82,1.29-1.49,1.53-2,.54-.4,.97-.75,1.3-1.05,.33-.3,.55-.52,.67-.63,.16-.23,.36-.5,.6-.81,.73-.54,1.36-1.08,1.9-1.63,.54-.55,1-1.07,1.37-1.56,.68-.52,1.31-.98,1.9-1.41,.37-.26,.65-.57,.83-.95,.18-.37,.26-.81,.26-1.3s-.15-.83-.44-1.09c-.29-.26-.74-.39-1.35-.39-1.1,0-2.46,.5-4.06,1.51-1.61,1.01-3.48,2.52-5.61,4.54-.47,.45-.9,.8-1.3,1.07-.4,.27-.73,.47-.98,.62-.54,.47-.98,.88-1.34,1.23s-.62,.65-.81,.88c-.35,.16-.66,.35-.93,.56-.27,.21-.49,.47-.65,.77-.21,.38-.4,.66-.56,.86-.16,.2-.3,.36-.42,.47l-3.2,2.11c-.23,.4-.44,.73-.62,1-.18,.27-.31,.45-.4,.54,.1,.21,.17,.39,.26,.59-1.23,1.04-2.23,1.86-2.97,2.43-.88,.68-1.39,1.02-1.53,1.02-.23,0-.41-.09-.53-.28-.12-.19-.18-.47-.18-.84,0-.42,.1-1.24,.3-2.46,.2-1.22,.49-2.81,.86-4.78,.61-2.46,1.16-4.59,1.66-6.4,.49-1.8,.94-3.29,1.34-4.46,.12-.44,.21-.84,.28-1.18,.07-.34,.13-.63,.18-.86l2.38-.49c.28-.02,.48-.42,.61-1.18,.13-.76,.19-1.85,.19-3.25,0-.33-.03-.6-.09-.83-.06-.22-.16-.38-.29-.47-.16-.14-.28-.26-.36-.37-.08-.11-.14-.21-.19-.3,.05-.44,.23-1.11,.55-1.99,.32-.88,.48-1.59,.48-2.13,0-.68-.15-1.2-.46-1.55-.3-.35-.74-.53-1.3-.53-1.06,0-2.05,1.1-2.98,3.3-.93,2.2-1.8,3.35-2.62,3.45l-1.16-.35c-.35,.07-.67,.14-.97,.19-.29,.06-.59,.12-.9,.19-.24-.07-.58-.13-1.02-.18-.45-.05-.99-.07-1.62-.07-.31,.07-.63,.14-.98,.21-.45-.09-.96-.17-1.53-.23-.57-.06-1.19-.09-1.85-.09s-1.14,.4-1.46,1.2c-.32,.8-.47,1.95-.47,3.45,0,.21,.08,.39,.23,.54,.15,.15,.37,.28,.65,.37,.19,.09,.38,.18,.58,.26,.2,.08,.42,.18,.65,.3,.19,0,.5,.01,.93,.04,.43,.02,.74,.04,.93,.04h4.39c.16,0,.4-.04,.72-.12,.32-.08,.54-.12,.69-.12,.16,0,.28,.04,.35,.11s.11,.18,.11,.32c-.28,.63-.54,1.16-.77,1.58-.23,.42-.45,.76-.63,1.02-1.55,2.79-3.11,5.26-4.69,7.4s-3.21,3.99-4.87,5.54c-.3,.38-.57,.7-.79,.98-.22,.28-.4,.52-.54,.7l-.14,.27c-.08,.08-.16,.15-.23,.2-.08,.06-.19,.09-.33,.09-.38,0-.65-.04-.81-.12-.16-.08-.25-.4-.25-.95,0-.94-.02-1.73-.07-2.39-.05-.66-.13-1.21-.25-1.65-.12-.56-.34-1.15-.67-1.76-.33-.61-.73-1.22-1.2-1.83-.09-.05-.55-.55-1.37-1.51-.82-.96-1.99-2.32-3.52-4.08-1.1-1.27-2.01-2.35-2.72-3.25-.72-.9-1.26-1.65-1.63-2.23-.52-.84-.91-1.66-1.18-2.46-.27-.8-.4-1.58-.4-2.36,0-.98,.52-2.14,1.56-3.46,1.04-1.32,2.6-2.82,4.66-4.48,.16-.12,.32-.21,.47-.28,.15-.07,.29-.11,.4-.11l.32,.21c.02,.4-.49,.98-1.55,1.74-1.05,.76-1.58,1.46-1.58,2.09,0,.38,.09,.66,.28,.84,.19,.19,.44,.28,.77,.28,.68,0,1.86-.56,3.55-1.67,1.69-1.11,3.91-2.77,6.68-4.97,.26-.21,.46-.63,.62-1.25,.15-.62,.23-1.42,.23-2.41,0-.89-.19-1.57-.58-2.04-.39-.47-.97-.7-1.74-.7-.4,0-.98,.14-1.76,.42s-1.75,.73-2.92,1.34c-.8,.3-1.51,.59-2.14,.84-.47,.16-.87,.34-1.21,.53-.34,.19-.65,.4-.93,.63-.49,.38-.94,.68-1.34,.91-.4,.23-.74,.42-1.02,.56-2.09,1.43-3.77,2.78-5.06,4.06-1.29,1.28-2.2,2.47-2.74,3.57-.09,.23-.18,.45-.25,.63-.07,.19-.14,.35-.21,.49-.47,.66-.83,1.4-1.07,2.23-.25,.83-.37,1.69-.37,2.58,0,1.36,.13,2.5,.4,3.41,.27,.91,.65,1.63,1.14,2.14,.28,.26,.52,.49,.72,.69,.2,.2,.36,.37,.47,.51,.12,.09,.25,.29,.4,.6,.15,.3,.36,.69,.62,1.16,.14,.23,.33,.49,.56,.76,.23,.27,.52,.54,.84,.83,.82,.66,1.68,1.41,2.57,2.27,.89,.86,1.78,1.82,2.67,2.9,1.17,1.38,2.05,2.57,2.64,3.55,.59,.98,.88,1.77,.88,2.36,0,.26-.15,.6-.44,1.02-.29,.42-.74,.9-1.35,1.44l-.07,.14,.18,.81c.02,.23-.49,.81-1.53,1.72-1.04,.91-1.72,1.37-2.02,1.37-.12,0-.26-.12-.42-.35,0-.19,.45-.5,1.35-.93,.9-.43,1.35-.97,1.35-1.6,0-.23-.08-.43-.25-.58-.16-.15-.43-.23-.81-.23-2.55,1.24-5.15,2.47-7.77,3.69-1.31,.59-2.31,1.21-2.99,1.86-.68,.66-1.02,1.34-1.02,2.04,0,.35,.15,.69,.46,1.02,.3,.33,.74,.67,1.3,1.02,.54,.28,1.03,.5,1.48,.65,.44,.15,.86,.23,1.23,.23,.61-.16,1.15-.32,1.62-.46,2.02-.63,4.05-1.62,6.1-2.95,2.05-1.33,4.11-3.01,6.17-5.02,1.78-.14,3.23-.3,4.34-.49,1.08-.18,1.78-.4,2.12-.64h.02l.02-.02h0c.22-.34,.42-.62,.6-.84,.19-.23,.32-.41,.39-.53,1.24-1.17,2.46-2.33,3.66-3.48,.77-.68,1.44-1.33,2-1.95,.56-.62,1.02-1.21,1.37-1.78l.35-.21c.19,.09,.28,.2,.28,.32-.28,.63-.55,1.23-.81,1.79-.16,.91-.32,1.83-.46,2.74-.09,.54-.18,1.01-.25,1.41-.07,.4-.11,.72-.11,.95-.05,.14-.12,.3-.21,.49-.21,.61-.36,1.41-.46,2.41-.09,1-.14,2.17-.14,3.53,0,1.24,.25,2.17,.76,2.78,.5,.61,1.27,.91,2.3,.91,.47,0,.97-.14,1.51-.4,.54-.27,1.09-.71,1.65-1.32,.42-.44,.84-.9,1.25-1.37,.41-.47,.83-.94,1.25-1.41,.42-.42,.81-.79,1.16-1.11s.64-.6,.88-.86c.32-.22,.62-.43,.89-.64-.26,.33-.48,.66-.64,1.01-.27,.57-.4,1.18-.4,1.81,0,1.15,.27,2,.81,2.55,.54,.55,1.37,.83,2.5,.83,.16,0,.42-.08,.77-.23s.77-.36,1.27-.62c.77-.42,1.47-.83,2.09-1.23,.62-.4,1.17-.8,1.63-1.2,.23-.23,.63-.62,1.2-1.16,.56-.54,1.25-1.23,2.07-2.07,.61-.49,1.14-.91,1.6-1.27l1.14-.88c.19-.21,.35-.38,.49-.51,.14-.13,.27-.25,.39-.37,.19,.23,.31,.46,.37,.69,.06,.22,.09,.44,.09,.65,.14,1.76,.62,3.07,1.44,3.94,.82,.87,1.99,1.3,3.52,1.3,.66,0,1.31-.13,1.97-.4,.66-.27,1.34-.67,2.04-1.21,.59-.47,1.14-.97,1.67-1.49s1.06-1.04,1.6-1.53c.21-.23,.36-.44,.46-.63,.09-.19,.16-.33,.21-.42,.77-.52,1.39-1,1.86-1.44,.47-.44,.81-.84,1.02-1.2,.35-.19,.8-.55,1.34-1.09s1.15-1.23,1.83-2.07c.63-.77,1.25-1.42,1.86-1.93,.61-.52,1.17-.91,1.69-1.2,.77,.09,1.35,.47,1.74,1.12,.39,.66,.58,1.61,.58,2.85,0,1.01-.14,2.14-.4,3.41-.27,1.27-.66,2.64-1.18,4.11-.12,.33-.26,.65-.42,.97-.16,.32-.32,.63-.46,.93-.19,.4-.33,.77-.44,1.11-.11,.34-.16,.64-.16,.9,0,.66,.25,1.13,.74,1.42,.49,.29,1.23,.44,2.21,.44,.61-.19,1.15-.43,1.62-.74,1.78-1.08,3.31-2.03,4.59-2.87,1.28-.83,2.31-1.54,3.11-2.13,.37-.33,.7-.62,.97-.88,.27-.26,.51-.48,.72-.67v-.02c.56-.53,1.06-1,1.46-1.42,.41-.42,.77-.79,1.07-1.09,.21,.21,.36,.4,.44,.56,.08,.16,.15,.35,.19,.56,.35,2.11,.95,3.69,1.81,4.75,.86,1.05,1.94,1.58,3.25,1.58,.4,0,.98,.04,1.76,.12,.77,.08,1.35,.12,1.72,.12,.73,0,1.46-.16,2.21-.47,.75-.32,1.49-.78,2.21-1.39,.63-.54,1.25-1.09,1.86-1.65,.61-.56,1.22-1.11,1.83-1.65v-.03c.89-.99,1.66-1.74,2.29-2.24,.63-.5,1.14-.76,1.51-.76,.14,0,.32,.14,.53,.4,.21,.27,.46,.67,.74,1.21,.23,.35,.44,.66,.63,.91,.19,.26,.33,.48,.42,.67,.77,2.25,1.48,3.62,2.11,4.11s2.02,.74,4.15,.74c.35,0,.87-.17,1.55-.51,.68-.34,1.5-.86,2.46-1.56,.87-.63,1.61-1.19,2.23-1.67,.62-.48,1.12-.91,1.49-1.28v-.03c.19-.22,.33-.42,.42-.6,.09-.19,.16-.33,.21-.42,.4-.37,.76-.71,1.07-1.02,.32-.3,.59-.54,.83-.7,.14-.07,.41-.3,.81-.7s.93-.95,1.58-1.65c.54-.61,1-1.05,1.39-1.34s.7-.42,.93-.42c.26,0,.45,.05,.56,.14,.12,.09,.18,.22,.18,.39s-.02,.36-.07,.58c-.05,.22-.13,.49-.24,.79-.12,.33-.21,.59-.3,.79-.08,.2-.12,.36-.12,.47-.58,1.97-1.09,3.69-1.54,5.17-.44,1.48-.84,2.71-1.19,3.69,.07,.66,.15,1.31,.23,1.95,.08,.64,.59,.97,1.53,.97,.47,0,.89-.05,1.28-.16s.73-.29,1.04-.54c.3-.28,.61-.57,.91-.86,.3-.29,.61-.59,.91-.9,1.19-1.22,2.19-2.27,2.98-3.16,.8-.89,1.36-1.62,1.69-2.18,.16-.3,.48-.57,.95-.81s1.23-.82,2.28-1.76c.49-.44,.95-.81,1.39-1.09s.87-.49,1.32-.63l.32,.11c.52,.68,.97,1.27,1.35,1.78,.39,.5,.73,.91,1.04,1.21,.38,.75,.7,1.38,.98,1.88,.28,.5,.52,.85,.7,1.04,.35,.47,.77,.82,1.27,1.05,.49,.23,1.01,.35,1.55,.35,.47,0,.94-.1,1.41-.3,.47-.2,.97-.54,1.51-1.04,.4-.33,.81-.67,1.23-1.02s.83-.69,1.23-1.02v-.02c.5-.53,1.02-1.05,1.55-1.56,.16,.3,.26,.53,.28,.67,.16,1.1,.51,2.18,1.04,3.23s1.21,2.11,2.06,3.16c.8,1.01,1.59,2.06,2.39,3.16,0,.3-.12,.66-.37,1.05-.25,.4-.59,.82-1.04,1.27-.59,.63-1.25,1.36-2,2.18-.3,.47-.63,.94-.97,1.41-.34,.47-.67,.95-1,1.44-.33,.59-.64,1.13-.93,1.63-.29,.5-.52,.99-.69,1.46-.3,.7-.52,1.26-.65,1.67-.13,.41-.19,.69-.19,.83,0,1.48,.04,2.66,.11,3.55,.07,.89,.16,1.49,.28,1.79,.3,.63,.83,1.11,1.56,1.42s1.73,.47,2.97,.47c2.7,0,5.56-1.35,8.6-4.04,3.04-2.7,4.69-5.39,4.97-8.09,.02-.33,.05-.62,.09-.88,.04-.26,.06-.45,.09-.56-.23-1.62-.57-2.99-1-4.11s-.96-2.04-1.56-2.74c-.33-.38-.6-.72-.83-1.02-.15-.21-.23-.39-.28-.57,1.79-1.89,3.79-3.96,6.03-6.16,5.33-5.23,9.99-9.24,13.15-11.86,6.29-2.55,11.21-5.47,14.72-7.86,7.94-5.4,12.17-8.27,15.01-13.43,.75-1.37,2.05-4.07,4.87-6.91,1.97-1.98,3.93-3.27,5.32-4.07,1.51-.69,3.72-1.51,6.5-1.89,2.91-.39,5.36-.15,7.03,.14-1.1-.65-2.71-1.45-4.77-1.96ZM101.83,34.18c.23-.82,.57-1.89,1.02-3.2,.4-.87,.79-1.66,1.16-2.39,.3-.61,.53-1.11,.69-1.49,.15-.39,.23-.66,.23-.83,0-1.05,.33-2.14,1-3.27s1.66-2.32,2.97-3.59l.25,.14c-.09,.45-.19,.9-.3,1.35s-.17,.92-.19,1.39c-.07,.59-.52,1.95-1.34,4.08-.82,2.13-1.42,3.46-1.79,3.97-.45,.77-.84,1.44-1.2,2s-.62,1.05-.81,1.48c-.4,.77-.75,1.36-1.05,1.76-.3,.4-.56,.61-.77,.63l-.21-.28c0-.35,.12-.94,.35-1.76ZM23.51,47.27c.05,.05,.1,.1,.15,.17,.07,.12,.13,.25,.18,.39,.13,.38,.25,.71,.37,1.03l-.69-1.59Zm88.83,.04s.08,.07,.11,.13c.07,.12,.13,.25,.18,.39,.14,.41,.27,.76,.4,1.1l-.68-1.61Zm20.35,.63c.2,.43,.39,.82,.54,1.15,.17,.37,.29,.68,.38,.97l-.92-2.12Zm33.61,0c.2,.43,.39,.82,.54,1.14,.17,.37,.29,.68,.38,.97l-.92-2.11Zm10.84,24.61c-1.9,1.96-3.75,2.94-5.55,2.94-.52,0-.9-.11-1.14-.32s-.37-.54-.37-.98c0-.26,.18-.87,.53-1.83,.35-.96,.62-1.57,.81-1.83,.54-.77,1.05-1.56,1.55-2.36,.49-.8,.98-1.58,1.48-2.36,.6-.89,1.1-1.61,1.52-2.2,.47-.53,.97-1.09,1.53-1.7,.29,0,.58,.17,.85,.49,.28,.33,.57,.83,.88,1.51,.23,.61,.42,1.17,.56,1.67,.14,.5,.21,.94,.21,1.32,0,1.8-.95,3.69-2.85,5.64Z"/><path class="cls-2" d="M120.71,28.87c.35,0,.71,.02,1.07,.05,.36,.04,.74,.08,1.14,.12,.14,.02,.39-.04,.76-.19,.36-.15,.81-.42,1.35-.79,.52-.3,.95-.65,1.32-1.04,.36-.39,.65-.84,.86-1.35,.09-.23,.23-.62,.4-1.16,.18-.54,.38-1.23,.62-2.07,.09-.44,.21-1,.35-1.65,0-.44-.14-.79-.4-1.02-.27-.23-.7-.35-1.28-.35-.49,0-.93,.05-1.3,.16-.38,.11-.68,.24-.91,.4-.54,.63-1.01,1.2-1.41,1.69-.66,.07-1.41,.64-2.27,1.71-.86,1.07-1.28,1.95-1.28,2.65,0,.8,.09,1.43,.26,1.9,.18,.47,.42,.79,.72,.95Z"/><path class="cls-3" d="M197.4,54.64c-.42-.68-.9-1.18-1.42-1.51-.53-.33-1.1-.49-1.71-.49-.35,0-.66,.1-.93,.3-.27,.2-.46,.52-.58,.97l-.28,1.05c-.09,.35-.2,.72-.32,1.09l.35,.91-.25,.25c.4,1.34,.94,2.34,1.62,3.02s1.5,1.02,2.46,1.02c.28,0,.51-.09,.69-.26s.32-.44,.44-.79c.35-.28,.62-.57,.79-.88,.18-.3,.26-.62,.26-.95,0-.63-.09-1.26-.26-1.88-.18-.62-.46-1.24-.86-1.85Z"/><path class="cls-1" d="M263.91,55.46c.28-.94,.52-1.73,.72-2.39,.2-.66,.39-1.21,.58-1.65,.84-2.72,1.34-4.34,1.48-4.85,.14-.52,.38-1.96,.7-4.32,.09-.82,.18-1.5,.26-2.04,.08-.54,.12-.93,.12-1.16,0-.94-.26-1.66-.79-2.16-.53-.5-1.32-.76-2.37-.76-.26,0-.52,.04-.79,.12-.27,.08-.56,.19-.86,.33-.91,.82-1.74,1.61-2.48,2.37-.74,.76-1.4,1.46-1.99,2.09-.52,.52-.97,.94-1.35,1.27-.39,.33-.73,.6-1.04,.81-.19,.33-.38,.62-.56,.88-.19,.26-.36,.45-.53,.56-.47,.47-.89,.87-1.27,1.2-.38,.33-.69,.59-.95,.77-.07,.14-.21,.34-.42,.6-.09,.14-.36,.36-.79,.67-.43,.3-1.04,.7-1.81,1.2-.59,.38-1.04,.75-1.35,1.12-.32,.38-.52,.73-.62,1.05l-.21,.25v.02c-.12,.08-.4,.31-.84,.68-.47,.4-1.11,.97-1.93,1.72-.7,.63-1.27,1.11-1.69,1.42s-.71,.47-.88,.47c-.19-.09-.3-.19-.35-.28,.28-.94,.52-1.73,.72-2.39,.2-.66,.39-1.21,.58-1.65,.84-2.72,1.34-4.34,1.48-4.85,.14-.52,.38-1.96,.7-4.32,.09-.82,.18-1.5,.26-2.04,.08-.54,.12-.93,.12-1.16,0-.94-.26-1.66-.79-2.16-.53-.5-1.32-.76-2.37-.76-.26,0-.52,.04-.79,.12-.27,.08-.56,.19-.86,.33-.91,.82-1.74,1.61-2.48,2.37-.74,.76-1.4,1.46-1.99,2.09-.52,.52-.97,.94-1.35,1.27-.39,.33-.73,.6-1.04,.81-.19,.33-.38,.62-.56,.88-.19,.26-.36,.45-.53,.56-.47,.47-.89,.87-1.27,1.2-.38,.33-.69,.59-.95,.77-.07,.14-.21,.34-.42,.6-.09,.14-.36,.36-.79,.67-.43,.3-1.04,.7-1.81,1.2-.59,.38-1.04,.75-1.35,1.12-.32,.38-.52,.73-.62,1.05l-.21,.25v.02c-.56,.51-1.06,.96-1.46,1.35-.41,.4-.73,.75-.97,1.05-.19,.16-.37,.29-.54,.37-.18,.08-.32,.16-.44,.23-.82,.54-1.65,1.07-2.48,1.58-.83,.52-1.65,1.01-2.44,1.48-.7,.21-1.34,.38-1.92,.51-.57,.13-1.04,.26-1.39,.4-.61-.16-1.12-.33-1.53-.49-.41-.16-.73-.33-.97-.49-.33-.23-.57-.54-.74-.93s-.25-.85-.25-1.39c0-.7,.06-1.32,.19-1.86,.13-.54,.31-1.03,.54-1.48,.16-.23,.46-.54,.88-.93s.95-.83,1.58-1.32c1.38-1.08,2.48-1.94,3.29-2.58,.81-.64,1.31-1.08,1.49-1.32,.52-.23,1.03-.49,1.55-.77s1.03-.54,1.55-.77c.77-.44,1.35-.93,1.74-1.46s.58-1.13,.58-1.81v-1.93c-.05-.28-.17-.52-.37-.7-.2-.19-.46-.28-.79-.28-.84,0-1.94,.33-3.29,.98-1.35,.66-2.27,1.3-2.76,1.93-.7,.3-1.45,.71-2.25,1.21-.8,.5-1.59,1.11-2.39,1.81-1.38,1.17-2.81,2.39-4.29,3.66-.35,.28-.72,.54-1.11,.77-.39,.23-.76,.48-1.11,.74-.56,.47-1,.88-1.3,1.23s-.47,.66-.49,.91l-.32,.28c.3,.56,.57,1.11,.81,1.65,.23,.54,.43,1.07,.6,1.58,0,.16-.06,.46-.18,.88s-.18,.73-.18,.91c0,.68,.04,1.25,.12,1.72,.08,.47,.23,.87,.44,1.2,.16,.3,.42,.63,.77,.97,.35,.34,.79,.7,1.3,1.07,.49,.35,1.09,.76,1.79,1.23,.23,.12,.53,.21,.88,.28s.75,.11,1.2,.11c1.99,0,3.77-.3,5.33-.9s2.92-1.48,4.1-2.65c.26-.26,.57-.54,.95-.84,1.15-.47,2.17-1.07,3.06-1.81s1.77-1.46,2.64-2.16c0,0,0-.03,0-.04,.22-.33,.42-.62,.59-.84,.18-.23,.31-.43,.4-.6,2.98-2.79,5.3-4.89,6.96-6.29s2.65-2.11,2.95-2.11,.52,.08,.65,.23c.13,.15,.19,.38,.19,.69,0,.42-.02,1.03-.07,1.83-.05,.8-.15,1.73-.32,2.81-.16,1.24-.33,2.19-.51,2.83-.18,.65-.35,.97-.51,.97s-.32-.18-.47-.54c-.15-.36-.4-.54-.76-.54-.68,0-1.29,.23-1.83,.69s-.81,1.04-.81,1.74c0,.12,.08,.48,.25,1.09-.02,.16-.05,.35-.07,.56s-.04,.41-.04,.6c0,1.01,.11,1.92,.32,2.74,.21,.82,.49,1.55,.84,2.18-.02,.37,.02,.68,.14,.91,.12,.23,.3,.39,.56,.46,.42-.14,.82-.28,1.2-.4,.38-.13,.75-.26,1.12-.4,.23-.09,.5-.26,.79-.49,.29-.23,.6-.57,.93-1.02l.67-.14c.75-.63,1.42-1.2,2.02-1.71,.6-.5,1.07-.93,1.42-1.28,.77-.49,1.48-.95,2.13-1.37s1.21-.8,1.71-1.12c.21-.28,.44-.54,.69-.77,.25-.23,.52-.44,.83-.63-.16-.47-.36-.97-.6-1.49l-.32-.73c.16,.34,.31,.65,.43,.92,.23,.52,.4,.95,.49,1.3,.23-.35,.44-.64,.62-.88,.18-.23,.31-.43,.4-.6,2.98-2.79,5.3-4.89,6.96-6.29s2.65-2.11,2.95-2.11,.52,.08,.65,.23c.13,.15,.19,.38,.19,.69,0,.42-.02,1.03-.07,1.83-.05,.8-.15,1.73-.32,2.81-.16,1.24-.33,2.19-.51,2.83-.18,.65-.35,.97-.51,.97s-.32-.18-.47-.54c-.15-.36-.4-.54-.76-.54-.68,0-1.29,.23-1.83,.69s-.81,1.04-.81,1.74c0,.12,.08,.48,.25,1.09-.02,.16-.05,.35-.07,.56s-.04,.41-.04,.6c0,1.01,.11,1.92,.32,2.74,.21,.82,.49,1.55,.84,2.18-.02,.37,.02,.68,.14,.91,.12,.23,.3,.39,.56,.46,.42-.14,.82-.28,1.2-.4,.38-.13,.75-.26,1.12-.4,.23-.09,.5-.26,.79-.49,.29-.23,.6-.57,.93-1.02l.67-.14c.5-.58,1.52-1.91,1.76-3.86,.11-.89,.04-1.65-.07-2.22Z"/><path class="cls-4" d="M226.46,53.24s.04,.08,.05,.11c.02,.04,.03,.07,.04,.11-.03-.07-.06-.14-.09-.21Z"/></g></svg>