<?xml version="1.0" encoding="UTF-8"?><svg id="Layer_2" xmlns="http://www.w3.org/2000/svg" xmlns:xlink="http://www.w3.org/1999/xlink" viewBox="0 0 82.49 67.64"><defs><style>.cls-1{fill:url(#linear-gradient);}</style><linearGradient id="linear-gradient" x1="0" y1="33.82" x2="82.49" y2="33.82" gradientTransform="matrix(1, 0, 0, 1, 0, 0)" gradientUnits="userSpaceOnUse"><stop offset="0" stop-color="#009DE1"/><stop offset=".54" stop-color="#0079AD"/><stop offset="1" stop-color="#004461"/></linearGradient></defs><g id="Layer_1-2"><path class="cls-1" d="M61.2,1.03c1.11-.52,2.58-1.18,4.43-1,2.11,.2,2.32,1.22,4.86,2.14,2.87,1.04,3.84,.19,7.23,1.04,2.06,.51,3.67,1.32,4.77,1.96-1.67-.3-4.12-.54-7.03-.14-2.78,.37-4.99,1.19-6.5,1.89-1.39,.8-3.35,2.09-5.32,4.07-2.82,2.84-4.12,5.53-4.87,6.91-2.84,5.16-7.06,8.03-15.01,13.43-3.51,2.39-8.43,5.31-14.72,7.86-3.16,2.62-7.82,6.63-13.15,11.86C6.09,60.67,.53,68,.04,67.63c-.52-.4,4.69-9.24,12-18.72,11.53-14.96,19.93-21.05,18.01-27.87-.6-2.13-1.93-3.32-4.29-5.43C17.33,8.06,6.45,7.17,.89,7.18,5.23,5.17,11.36,3,18.9,2.32c7.44-.67,13.07,.39,14.5,.68,5.9,1.19,10.59,3.38,11.3,3.74,.05,.03,.26,.13,.54,.26,.75,.33,2.1,.86,3.83,1.1,.87,.12,1.76,.16,2.29,.13,3.7-.22,4.63-4.75,9.84-7.18Z"/></g></svg>