<?xml version="1.0" encoding="UTF-8"?><svg id="Layer_1" xmlns="http://www.w3.org/2000/svg" viewBox="0 0 177.86 166.25"><defs><style>.cls-1{fill:#996c68;}.cls-2{fill:#f5c1ae;}.cls-3{fill:#fdfdc5;}</style></defs><path class="cls-1" d="M11.96,81.4C11.96,38.73,45,3.78,86.88,.72c-1.98-.15-3.97-.22-5.98-.22C36.22,.5,0,36.72,0,81.4s36.22,80.91,80.91,80.91c2.01,0,4.01-.07,5.98-.22-41.89-3.06-74.93-38.02-74.93-80.69h0Z"/><path class="cls-2" d="M22.73,86.13C22.73,41.45,58.96,5.22,103.64,5.22c10.3,0,20.14,1.93,29.19,5.43C120.99,3.87,107.29,0,92.68,0,48,0,11.77,36.22,11.77,80.91c0,34.39,21.46,63.77,51.71,75.48-24.35-13.95-40.76-40.19-40.76-70.26Z"/><path class="cls-3" d="M88.59,4.44v.11C50.7,6.82,20.6,42.13,20.6,85.35s30.1,78.53,67.99,80.79v.11h88.08V4.44H88.59Z"/><path class="cls-1" d="M173.6,.7H76.56c-2.35,0-4.26,1.91-4.26,4.26V161.73c0,2.35,1.91,4.26,4.26,4.26h97.04c2.35,0,4.26-1.91,4.26-4.26V4.96c0-2.35-1.91-4.26-4.26-4.26Zm-48.59,33.83c.28,0,.57-.01,.86-.01,5.38,0,10.17,.81,14.37,2.42,4.2,1.62,7.74,3.75,10.6,6.41,2.87,2.66,5.04,5.72,6.53,9.2,1.48,3.48,2.22,7.07,2.22,10.78h-12.66c0-2.66-.43-5.12-1.28-7.38-.86-2.27-2.15-4.23-3.9-5.88-1.75-1.65-3.94-2.94-6.56-3.85-2.63-.92-5.73-1.37-9.32-1.37h-.86v-10.31Zm0,97.64c-2.43-.07-4.85-.34-7.28-.79-2.94-.55-5.75-1.36-8.44-2.45-2.69-1.1-5.18-2.44-7.48-4.06-2.3-1.6-4.3-3.48-6.01-5.61-1.71-2.13-3.04-4.53-4.01-7.19-.96-2.66-1.44-5.57-1.44-8.74h12.67c0,3.26,.64,6.06,1.94,8.39,1.29,2.33,3.02,4.26,5.19,5.78,2.17,1.52,4.66,2.64,7.48,3.36,2.36,.6,4.82,.95,7.38,1.05v10.25Zm22.11-26.35h0c-.09-1.8-.42-3.41-.99-4.83-.68-1.69-1.88-3.25-3.62-4.67-1.72-1.42-4.05-2.75-6.99-3.98-2.93-1.24-6.65-2.52-11.16-3.82-4.72-1.35-9-2.88-12.83-4.61-3.83-1.72-7.1-3.7-9.78-5.94-2.69-2.24-4.76-4.81-6.2-7.67-1.45-2.87-2.17-6.16-2.17-9.86v-.59h12.74v.39c0,2.01,.42,3.83,1.28,5.48,.85,1.66,2.17,3.19,3.96,4.58,1.79,1.39,4.1,2.68,6.93,3.85,2.82,1.18,6.21,2.31,10.14,3.4,5.42,1.52,10.11,3.2,14.04,5.06,3.94,1.84,7.19,3.95,9.75,6.29,2.56,2.35,4.46,4.99,5.71,7.9,1.14,2.68,1.77,5.68,1.86,9.02h-12.68Z"/></svg>