<?xml version="1.0" encoding="UTF-8"?><svg id="Layer_2" xmlns="http://www.w3.org/2000/svg" viewBox="0 0 741.04 166.25"><defs><style>.cls-1{fill:#996c68;}.cls-2{fill:#f5c1ae;}.cls-3{fill:#fdfdc5;}.cls-4{fill:#5755d9;}</style></defs><g id="Layer_1-2"><g><path class="cls-1" d="M11.96,81.4C11.96,38.73,45,3.78,86.88,.72c-1.98-.15-3.97-.22-5.98-.22C36.22,.5,0,36.72,0,81.4s36.22,80.91,80.91,80.91c2.01,0,4.01-.07,5.98-.22-41.89-3.06-74.93-38.02-74.93-80.69h0Z"/><path class="cls-2" d="M22.73,86.13C22.73,41.45,58.96,5.22,103.64,5.22c10.3,0,20.14,1.93,29.19,5.43C120.99,3.87,107.29,0,92.68,0,48,0,11.77,36.22,11.77,80.91c0,34.39,21.46,63.77,51.71,75.48-24.35-13.95-40.76-40.19-40.76-70.26Z"/><path class="cls-3" d="M88.59,4.44v.11C50.7,6.82,20.6,42.13,20.6,85.35s30.1,78.53,67.99,80.79v.11h88.08V4.44H88.59Z"/><path class="cls-1" d="M527.83,43.64v19.68h-13.98V5.32h23.15c4.43,0,8.36,.82,11.77,2.45,3.41,1.63,6.06,3.96,7.93,6.97,1.87,3.01,2.81,6.43,2.81,10.26,0,5.66-2.03,10.18-6.08,13.56-4.05,3.39-9.61,5.08-16.67,5.08h-8.92Zm0-10.8h9.16c2.71,0,4.77-.68,6.19-2.03s2.13-3.27,2.13-5.74c0-2.71-.73-4.87-2.19-6.49-1.46-1.62-3.45-2.44-5.98-2.47h-9.32v16.73Z"/><path class="cls-1" d="M586.67,64.12c-6.61,0-11.96-1.97-16.05-5.92s-6.13-9.08-6.13-15.4v-1.12c0-4.41,.82-8.3,2.45-11.67,1.63-3.37,4.02-5.98,7.15-7.83,3.13-1.85,6.85-2.77,11.15-2.77,6.06,0,10.84,1.88,14.34,5.64,3.51,3.76,5.26,9,5.26,15.72v5.22h-26.69c.48,2.42,1.53,4.32,3.15,5.7,1.62,1.38,3.72,2.07,6.29,2.07,4.25,0,7.57-1.49,9.96-4.46l6.13,7.25c-1.67,2.31-4.04,4.15-7.11,5.52s-6.37,2.05-9.9,2.05Zm-1.51-34.34c-3.93,0-6.27,2.6-7.01,7.81h13.54v-1.04c.05-2.15-.49-3.82-1.63-5s-2.78-1.77-4.9-1.77Z"/><path class="cls-1" d="M622.56,20.22l.44,5.06c2.97-3.9,7.08-5.86,12.31-5.86,4.49,0,7.84,1.34,10.06,4.02,2.22,2.68,3.37,6.72,3.45,12.11v27.77h-13.46v-27.21c0-2.18-.44-3.78-1.31-4.8-.88-1.02-2.47-1.53-4.78-1.53-2.63,0-4.58,1.04-5.86,3.11v30.44h-13.42V20.22h12.59Z"/><path class="cls-1" d="M668.58,20.22l.44,5.06c2.97-3.9,7.08-5.86,12.31-5.86,4.49,0,7.84,1.34,10.06,4.02,2.22,2.68,3.37,6.72,3.45,12.11v27.77h-13.46v-27.21c0-2.18-.44-3.78-1.31-4.8-.88-1.02-2.47-1.53-4.78-1.53-2.63,0-4.58,1.04-5.86,3.11v30.44h-13.42V20.22h12.59Z"/><path class="cls-1" d="M719.49,44.52l7.17-24.3h14.38l-17.57,50.31-.76,1.83c-2.5,5.58-6.91,8.37-13.23,8.37-1.75,0-3.6-.26-5.54-.79v-9.56h1.75c1.89,0,3.33-.27,4.32-.82,1-.55,1.73-1.52,2.21-2.93l1.08-2.87-14.98-43.54h14.34l6.81,24.3Z"/><path class="cls-1" d="M173.6,.7H76.56c-2.35,0-4.26,1.91-4.26,4.26V161.73c0,2.35,1.91,4.26,4.26,4.26h97.04c2.35,0,4.26-1.91,4.26-4.26V4.96c0-2.35-1.91-4.26-4.26-4.26Zm-48.59,33.83c.28,0,.57-.01,.86-.01,5.38,0,10.17,.81,14.37,2.42,4.2,1.62,7.74,3.75,10.6,6.41,2.87,2.66,5.04,5.72,6.53,9.2,1.48,3.48,2.22,7.07,2.22,10.78h-12.66c0-2.66-.43-5.12-1.28-7.38-.86-2.27-2.15-4.23-3.9-5.88-1.75-1.65-3.94-2.94-6.56-3.85-2.63-.92-5.73-1.37-9.32-1.37h-.86v-10.31Zm0,97.64c-2.43-.07-4.85-.34-7.28-.79-2.94-.55-5.75-1.36-8.44-2.45-2.69-1.1-5.18-2.44-7.48-4.06-2.3-1.6-4.3-3.48-6.01-5.61-1.71-2.13-3.04-4.53-4.01-7.19-.96-2.66-1.44-5.57-1.44-8.74h12.67c0,3.26,.64,6.06,1.94,8.39,1.29,2.33,3.02,4.26,5.19,5.78,2.17,1.52,4.66,2.64,7.48,3.36,2.36,.6,4.82,.95,7.38,1.05v10.25Zm22.11-26.35h0c-.09-1.8-.42-3.41-.99-4.83-.68-1.69-1.88-3.25-3.62-4.67-1.72-1.42-4.05-2.75-6.99-3.98-2.93-1.24-6.65-2.52-11.16-3.82-4.72-1.35-9-2.88-12.83-4.61-3.83-1.72-7.1-3.7-9.78-5.94-2.69-2.24-4.76-4.81-6.2-7.67-1.45-2.87-2.17-6.16-2.17-9.86v-.59h12.74v.39c0,2.01,.42,3.83,1.28,5.48,.85,1.66,2.17,3.19,3.96,4.58,1.79,1.39,4.1,2.68,6.93,3.85,2.82,1.18,6.21,2.31,10.14,3.4,5.42,1.52,10.11,3.2,14.04,5.06,3.94,1.84,7.19,3.95,9.75,6.29,2.56,2.35,4.46,4.99,5.71,7.9,1.14,2.68,1.77,5.68,1.86,9.02h-12.68Z"/><path class="cls-4" d="M235.29,133.74c0-3-1.06-5.34-3.19-7.02s-5.86-3.41-11.2-5.21c-5.34-1.79-9.71-3.53-13.1-5.21-11.04-5.42-16.55-12.87-16.55-22.35,0-4.72,1.37-8.88,4.12-12.49,2.75-3.61,6.64-6.42,11.67-8.42,5.03-2.01,10.68-3.01,16.96-3.01s11.61,1.09,16.47,3.28c4.86,2.18,8.63,5.29,11.32,9.33,2.69,4.04,4.04,8.65,4.04,13.84h-20.48c0-3.47-1.06-6.16-3.19-8.07-2.13-1.91-5-2.87-8.63-2.87s-6.56,.81-8.69,2.43c-2.13,1.62-3.19,3.68-3.19,6.17,0,2.18,1.17,4.16,3.51,5.94s6.45,3.61,12.34,5.5c5.89,1.89,10.72,3.93,14.51,6.11,9.2,5.3,13.81,12.62,13.81,21.94,0,7.45-2.81,13.3-8.42,17.55-5.62,4.25-13.32,6.38-23.11,6.38-6.9,0-13.15-1.24-18.75-3.71-5.6-2.48-9.81-5.87-12.64-10.18-2.83-4.31-4.24-9.27-4.24-14.89h20.59c0,4.56,1.18,7.93,3.54,10.09,2.36,2.16,6.19,3.25,11.5,3.25,3.39,0,6.07-.73,8.04-2.19,1.97-1.46,2.95-3.52,2.95-6.17Z"/><path class="cls-4" d="M286.89,127.48v28.9h-20.53V71.21h33.99c6.51,0,12.27,1.2,17.29,3.6,5.01,2.4,8.89,5.81,11.64,10.24,2.75,4.43,4.12,9.45,4.12,15.06,0,8.31-2.97,14.95-8.92,19.92-5.95,4.97-14.11,7.46-24.48,7.46h-13.1Zm0-15.85h13.46c3.98,0,7.01-1,9.1-2.98,2.09-1.99,3.13-4.8,3.13-8.42,0-3.98-1.07-7.16-3.22-9.54-2.15-2.38-5.07-3.59-8.78-3.63h-13.69v24.57Z"/><path class="cls-4" d="M397.16,120.23h-32.29v20.36h38.14v15.79h-58.68V71.21h58.79v15.85h-38.26v17.96h32.29v15.21Z"/><path class="cls-4" d="M480.29,127.54c-.27,5.93-1.87,11.17-4.8,15.71s-7.03,8.06-12.31,10.56c-5.29,2.5-11.32,3.74-18.11,3.74-11.19,0-20.01-3.65-26.44-10.94-6.44-7.29-9.65-17.59-9.65-30.89v-4.21c0-8.35,1.45-15.65,4.36-21.91,2.91-6.26,7.09-11.09,12.55-14.51,5.46-3.41,11.78-5.12,18.95-5.12,10.33,0,18.64,2.72,24.92,8.16,6.28,5.44,9.85,12.94,10.71,22.49h-20.47c-.16-5.19-1.46-8.91-3.92-11.17-2.46-2.26-6.2-3.39-11.23-3.39s-8.85,1.91-11.23,5.73c-2.38,3.82-3.63,9.93-3.74,18.31v6.03c0,9.09,1.14,15.58,3.42,19.48,2.28,3.9,6.21,5.85,11.79,5.85,4.72,0,8.33-1.11,10.82-3.33s3.82-5.75,3.98-10.59h20.42Z"/><path class="cls-4" d="M555.17,87.06h-25.56v69.32h-20.53V87.06h-25.1v-15.85h71.19v15.85Z"/><path class="cls-4" d="M595.48,126.26h-11.11v30.13h-20.53V71.21h33.52c10.1,0,18,2.24,23.69,6.72,5.69,4.48,8.54,10.81,8.54,18.99,0,5.92-1.2,10.83-3.6,14.73-2.4,3.9-6.15,7.05-11.26,9.47l17.78,34.39v.88h-22l-15.04-30.13Zm-11.11-15.79h12.99c3.9,0,6.83-1.03,8.8-3.08,1.97-2.05,2.95-4.92,2.95-8.59s-.99-6.56-2.98-8.65c-1.99-2.09-4.91-3.14-8.78-3.14h-12.99v23.46Z"/><path class="cls-4" d="M694.81,120.23h-32.29v20.36h38.14v15.79h-58.68V71.21h58.79v15.85h-38.26v17.96h32.29v15.21Z"/></g></g></svg>